<svg width="17" height="16" viewBox="0 0 17 16" fill="none" xmlns="http://www.w3.org/2000/svg">
<path d="M15.6667 4H6.33333C5.59667 4 5 4.59667 5 5.33333V14.6667C5 15.4033 5.59667 16 6.33333 16H15.6667C16.4033 16 17 15.4033 17 14.6667V5.33333C17 4.59667 16.4033 4 15.6667 4ZM16.138 10.4713L13.938 12.6713C13.808 12.8013 13.6373 12.8667 13.4667 12.8667C13.296 12.8667 13.1253 12.8013 12.9953 12.6713C12.7347 12.4107 12.7347 11.9893 12.9953 11.7287L14.0573 10.6667H9C8.63133 10.6667 8.33333 10.3687 8.33333 10C8.33333 9.63133 8.63133 9.33333 9 9.33333H14.0573L12.9953 8.27133C12.7347 8.01067 12.7347 7.58933 12.9953 7.32867C13.256 7.068 13.6773 7.068 13.938 7.32867L16.138 9.52867C16.3987 9.78933 16.3987 10.2107 16.138 10.4713Z" fill="white"/>
<path d="M0.257603 0.982857C0.186046 0.982857 0.125224 0.956191 0.0751342 0.902857C0.0250447 0.849524 0 0.784762 0 0.708572V0.285715C0 0.201905 0.0250447 0.133333 0.0751342 0.0800003C0.125224 0.0266668 0.186046 0 0.257603 0H5.73166C5.81038 0 5.87478 0.0266668 5.92487 0.0800003C5.97496 0.133333 6 0.201905 6 0.285715V0.708572C6 0.784762 5.97138 0.849524 5.91413 0.902857C5.86404 0.956191 5.80322 0.982857 5.73166 0.982857H0.257603ZM2.50089 8C2.42934 8 2.36852 7.97333 2.31843 7.92C2.26834 7.86667 2.24329 7.8019 2.24329 7.72571V2.83429H0.257603C0.186046 2.83429 0.125224 2.80762 0.0751342 2.75429C0.0250447 2.70095 0 2.63619 0 2.56V1.94286C0 1.85905 0.0250447 1.79429 0.0751342 1.74857C0.125224 1.69524 0.186046 1.66857 0.257603 1.66857H5.73166C5.81038 1.66857 5.87478 1.69524 5.92487 1.74857C5.97496 1.8019 6 1.86667 6 1.94286V2.56C6 2.63619 5.97496 2.70095 5.92487 2.75429C5.87478 2.80762 5.81038 2.83429 5.73166 2.83429H3.75671V7.72571C3.75671 7.8019 3.73166 7.86667 3.68157 7.92C3.63148 7.97333 3.56708 8 3.48837 8H2.50089Z" fill="white"/>
</svg>
