<svg width="10" height="12" viewBox="0 0 10 12" fill="none" xmlns="http://www.w3.org/2000/svg">
<path d="M0.429338 1.47429C0.310077 1.47429 0.208706 1.43429 0.125224 1.35429C0.0417412 1.27429 0 1.17714 0 1.06286V0.428572C0 0.302857 0.0417412 0.2 0.125224 0.12C0.208706 0.0400002 0.310077 0 0.429338 0H9.55277C9.68396 0 9.79129 0.0400002 9.87478 0.12C9.95826 0.2 10 0.302857 10 0.428572V1.06286C10 1.17714 9.9523 1.27429 9.85689 1.35429C9.77341 1.43429 9.67203 1.47429 9.55277 1.47429H0.429338ZM4.16816 12C4.0489 12 3.94753 11.96 3.86404 11.88C3.78056 11.8 3.73882 11.7029 3.73882 11.5886V4.25143H0.429338C0.310077 4.25143 0.208706 4.21143 0.125224 4.13143C0.0417412 4.05143 0 3.95429 0 3.84V2.91429C0 2.78857 0.0417412 2.69143 0.125224 2.62286C0.208706 2.54286 0.310077 2.50286 0.429338 2.50286H9.55277C9.68396 2.50286 9.79129 2.54286 9.87478 2.62286C9.95826 2.70286 10 2.8 10 2.91429V3.84C10 3.95429 9.95826 4.05143 9.87478 4.13143C9.79129 4.21143 9.68396 4.25143 9.55277 4.25143H6.26118V11.5886C6.26118 11.7029 6.21944 11.8 6.13596 11.88C6.05247 11.96 5.94514 12 5.81395 12H4.16816Z" fill="white"/>
</svg>
