<svg width="32" height="32" viewBox="0 0 32 32" fill="none" xmlns="http://www.w3.org/2000/svg">
<path d="M13.9711 15.5093L7.95774 6.07995L10.5324 5.38928L19.8004 13.9493L26.8164 12.0693C27.3288 11.9321 27.8747 12.004 28.3341 12.2693C28.7934 12.5346 29.1285 12.9716 29.2657 13.4839C29.403 13.9963 29.331 14.5423 29.0657 15.0016C28.8004 15.4609 28.3635 15.7961 27.8511 15.9333L7.88841 21.2799L6.85374 17.4159L7.17508 17.3293L10.4644 20.5893L6.96308 21.528C6.67596 21.6049 6.37136 21.5838 6.09766 21.4678C5.82395 21.3519 5.59684 21.1478 5.45241 20.8879L1.95508 14.5866L3.88708 14.0693L7.17508 17.3293L13.9711 15.5079V15.5093ZM5.33374 25.3333H26.6671V28H5.33374V25.3333Z" fill="#A1AEBC"/>
</svg>