<svg width="17" height="20" viewBox="0 0 17 20" fill="none" xmlns="http://www.w3.org/2000/svg">
<path d="M2.90105 0.0114111C2.55852 -0.0204324 2.20962 0.0141086 1.87174 0.118324C0.473485 0.545712 -0.313185 2.02152 0.118193 3.41001C0.13413 3.46369 0.189796 3.66477 0.277984 3.97952C0.843237 6.00698 2.56083 12.1761 3.66265 15.1046C3.81671 15.5173 4.21462 15.7913 4.65874 15.7913H6.07611L5.34356 18.6944C5.26388 19.0092 5.33782 19.3402 5.53863 19.595C5.73945 19.8508 6.04769 20 6.37494 20H13.8125C14.1397 20 14.448 19.8508 14.6488 19.595C14.8496 19.3402 14.9235 19.0081 14.8439 18.6944L14.1113 15.7913H14.3437C15.8079 15.7913 17 14.6113 17 13.1596C17 11.708 15.8079 10.5279 14.3437 10.5279H7.7425C7.51619 9.81316 7.3002 9.10892 7.09089 8.42257H10.625V6.31721H6.4621C5.96485 4.61819 5.57459 3.21455 5.36847 2.47452C5.27284 2.12924 5.2112 1.9125 5.19207 1.85566C4.98276 1.18405 4.52093 0.633858 3.89299 0.305421C3.57902 0.142256 3.24357 0.0432547 2.90105 0.0114111ZM8.26753 15.7913H11.9199L12.4511 17.8946H7.73628L8.26753 15.7913Z" fill="#A1ADBC"/>
</svg>
