<svg width="19" height="13" viewBox="0 0 19 13" fill="none" xmlns="http://www.w3.org/2000/svg">
<path d="M5.06667 0H8.86667V3.54545H5.06667V0Z" fill="#A1ADBC"/>
<path d="M10.1333 0H13.9333V3.54545H10.1333V0Z" fill="#A1ADBC"/>
<path d="M15.2 0H19V3.54545H15.2V0Z" fill="#A1ADBC"/>
<path d="M0 9.45455H3.8V13H0V9.45455Z" fill="#A1ADBC"/>
<path d="M5.06667 9.45455H8.86667V13H5.06667V9.45455Z" fill="#A1ADBC"/>
<path d="M10.1333 9.45455H13.9333V13H10.1333V9.45455Z" fill="#A1ADBC"/>
<path d="M15.2 4.72727H19V8.27273H15.2V4.72727Z" fill="#A1ADBC"/>
<path d="M10.1333 4.72727H13.9333V8.27273H10.1333V4.72727Z" fill="#A1ADBC"/>
<path d="M5.06667 4.72727H8.86667V8.27273H5.06667V4.72727Z" fill="#A1ADBC"/>
<path d="M0 4.72727H3.8V8.27273H0V4.72727Z" fill="#A1ADBC"/>
</svg>
