<svg width="24" height="24" viewBox="0 0 24 24" fill="none" xmlns="http://www.w3.org/2000/svg">
<path d="M8.08203 3.11328L6.27148 3.66016L10.2695 10.6367L5.17578 11.9805L3.36719 10.4609L2 10.8691L4.5625 15.2422L20.7559 10.9785C20.7578 10.9779 20.7598 10.9772 20.7617 10.9766C21.1087 10.9151 21.4229 10.7334 21.6493 10.4634C21.8758 10.1934 21.9999 9.85236 22 9.5C22 9.10218 21.842 8.72064 21.5607 8.43934C21.2794 8.15804 20.8978 8 20.5 8C20.3694 8.00002 20.2394 8.0171 20.1133 8.05078V8.04883L14.8828 9.42578L8.08203 3.11328ZM3 18V20H21V18H3Z" fill="#A1ADBC"/>
</svg>
