<svg width="24" height="24" viewBox="0 0 24 24" fill="none" xmlns="http://www.w3.org/2000/svg">
<path d="M3 4.88889C3 4.65314 3.09482 4.42705 3.2636 4.26035C3.43239 4.09365 3.66131 4 3.9 4H20.1C20.3387 4 20.5676 4.09365 20.7364 4.26035C20.9052 4.42705 21 4.65314 21 4.88889V9.77778C20.4033 9.77778 19.831 10.0119 19.409 10.4287C18.9871 10.8454 18.75 11.4106 18.75 12C18.75 12.5894 18.9871 13.1546 19.409 13.5713C19.831 13.9881 20.4033 14.2222 21 14.2222V19.1111C21 19.3469 20.9052 19.573 20.7364 19.7397C20.5676 19.9064 20.3387 20 20.1 20H3.9C3.66131 20 3.43239 19.9064 3.2636 19.7397C3.09482 19.573 3 19.3469 3 19.1111V4.88889ZM8.4765 18.2222C8.56926 17.9618 8.7416 17.7362 8.96971 17.5766C9.19782 17.4171 9.47046 17.3314 9.75 17.3314C10.0295 17.3314 10.3022 17.4171 10.5303 17.5766C10.7584 17.7362 10.9307 17.9618 11.0235 18.2222H19.2V15.584C18.5239 15.2531 17.9549 14.7422 17.557 14.1089C17.1592 13.4757 16.9484 12.7452 16.9484 12C16.9484 11.2548 17.1592 10.5243 17.557 9.89107C17.9549 9.25782 18.5239 8.74693 19.2 8.416V5.77778H11.0235C10.9307 6.03822 10.7584 6.2638 10.5303 6.42337C10.3022 6.58295 10.0295 6.66865 9.75 6.66865C9.47046 6.66865 9.19782 6.58295 8.96971 6.42337C8.7416 6.2638 8.56926 6.03822 8.4765 5.77778H4.8V18.2222H8.4765ZM9.75 11.1111C9.39196 11.1111 9.04858 10.9706 8.79541 10.7206C8.54223 10.4705 8.4 10.1314 8.4 9.77778C8.4 9.42416 8.54223 9.08502 8.79541 8.83497C9.04858 8.58492 9.39196 8.44444 9.75 8.44444C10.108 8.44444 10.4514 8.58492 10.7046 8.83497C10.9578 9.08502 11.1 9.42416 11.1 9.77778C11.1 10.1314 10.9578 10.4705 10.7046 10.7206C10.4514 10.9706 10.108 11.1111 9.75 11.1111ZM9.75 15.5556C9.39196 15.5556 9.04858 15.4151 8.79541 15.165C8.54223 14.915 8.4 14.5758 8.4 14.2222C8.4 13.8686 8.54223 13.5295 8.79541 13.2794C9.04858 13.0294 9.39196 12.8889 9.75 12.8889C10.108 12.8889 10.4514 13.0294 10.7046 13.2794C10.9578 13.5295 11.1 13.8686 11.1 14.2222C11.1 14.5758 10.9578 14.915 10.7046 15.165C10.4514 15.4151 10.108 15.5556 9.75 15.5556Z" fill="#30333C"/>
</svg>
