<svg width="32" height="32" viewBox="0 0 32 32" fill="none" xmlns="http://www.w3.org/2000/svg">
<path d="M14.2227 4.44446C13.1046 4.44446 12.3095 5.23612 11.9171 6.22224H10.6671C8.22266 6.22224 6.22266 8.22224 6.22266 10.6667V20.4445C6.22266 22.6007 7.51085 24.4653 9.36155 25.3056L7.11155 27.5556H9.19488L11.0004 25.75C11.1775 25.7674 11.372 25.7778 11.556 25.7778H20.4449C20.6289 25.7778 20.8234 25.7674 21.0004 25.75L22.806 27.5556H24.8893L22.6393 25.3056C24.49 24.4653 25.7782 22.6007 25.7782 20.4445V10.6667C25.7782 8.22224 23.7782 6.22224 21.3338 6.22224H20.0838C19.6914 5.23612 18.8963 4.44446 17.7782 4.44446H14.2227ZM14.2227 6.22224H17.7782C18.2817 6.22224 18.6671 6.60765 18.6671 7.11112V8.00001H21.3338C22.5074 8.00001 23.5004 8.73612 23.8615 9.77779H8.13932C8.50043 8.73612 9.49349 8.00001 10.6671 8.00001H13.3338V7.11112C13.3338 6.60765 13.7192 6.22224 14.2227 6.22224ZM8.00043 11.5556H24.0004V16H8.00043V11.5556ZM8.00043 17.7778H24.0004V20.4445C24.0004 22.4167 22.4171 24 20.4449 24H11.556C9.58377 24 8.00043 22.4167 8.00043 20.4445V17.7778ZM16.0004 18.6667C15.0178 18.6667 14.2227 19.4618 14.2227 20.4445C14.2227 21.4271 15.0178 22.2222 16.0004 22.2222C16.9831 22.2222 17.7782 21.4271 17.7782 20.4445C17.7782 19.4618 16.9831 18.6667 16.0004 18.6667Z" fill="#A1AEBC"/>
</svg>
