<svg width="12" height="12" viewBox="0 0 12 12" fill="none" xmlns="http://www.w3.org/2000/svg">
<path d="M10.6667 0H1.33333C0.596667 0 0 0.596667 0 1.33333V10.6667C0 11.4033 0.596667 12 1.33333 12H10.6667C11.4033 12 12 11.4033 12 10.6667V1.33333C12 0.596667 11.4033 0 10.6667 0ZM11.138 6.47133L8.938 8.67133C8.808 8.80133 8.63733 8.86667 8.46667 8.86667C8.296 8.86667 8.12533 8.80133 7.99533 8.67133C7.73467 8.41067 7.73467 7.98933 7.99533 7.72867L9.05733 6.66667H4C3.63133 6.66667 3.33333 6.36867 3.33333 6C3.33333 5.63133 3.63133 5.33333 4 5.33333H9.05733L7.99533 4.27133C7.73467 4.01067 7.73467 3.58933 7.99533 3.32867C8.256 3.068 8.67733 3.068 8.938 3.32867L11.138 5.52867C11.3987 5.78933 11.3987 6.21067 11.138 6.47133Z" fill="white"/>
</svg>
