<svg width="19" height="19" viewBox="0 0 19 19" fill="none" xmlns="http://www.w3.org/2000/svg">
<path d="M17.6667 7H8.33333C7.59667 7 7 7.59667 7 8.33333V17.6667C7 18.4033 7.59667 19 8.33333 19H17.6667C18.4033 19 19 18.4033 19 17.6667V8.33333C19 7.59667 18.4033 7 17.6667 7ZM18.138 13.4713L15.938 15.6713C15.808 15.8013 15.6373 15.8667 15.4667 15.8667C15.296 15.8667 15.1253 15.8013 14.9953 15.6713C14.7347 15.4107 14.7347 14.9893 14.9953 14.7287L16.0573 13.6667H11C10.6313 13.6667 10.3333 13.3687 10.3333 13C10.3333 12.6313 10.6313 12.3333 11 12.3333H16.0573L14.9953 11.2713C14.7347 11.0107 14.7347 10.5893 14.9953 10.3287C15.256 10.068 15.6773 10.068 15.938 10.3287L18.138 12.5287C18.3987 12.7893 18.3987 13.2107 18.138 13.4713Z" fill="white"/>
<path d="M4.5 6.42933L7.2811 8L6.54297 5.04L9 3.04838L5.76454 2.79162L4.5 0L3.23546 2.79162L0 3.04838L2.45703 5.04L1.7189 8L4.5 6.42933Z" fill="white"/>
</svg>
