<svg width="24" height="24" viewBox="0 0 24 24" fill="none" xmlns="http://www.w3.org/2000/svg">
<path d="M3 19H21V21H3V19ZM19.5 13C19.1022 13 18.7206 13.1581 18.4393 13.4394C18.158 13.7207 18 14.1022 18 14.5C18 14.8978 18.158 15.2794 18.4393 15.5607C18.7206 15.842 19.1022 16 19.5 16C19.8978 16 20.2794 15.842 20.5607 15.5607C20.842 15.2794 21 14.8978 21 14.5C21 14.1022 20.842 13.7207 20.5607 13.4394C20.2794 13.1581 19.8978 13 19.5 13Z" fill="#A1ADBC"/>
<path d="M14.789 11.691L11.984 2.84602L10 2.40002V10.424L5.084 9.12902L4.26 6.91302L3 6.62602V11.68L19.148 15.96L19.908 13.061L14.789 11.691Z" fill="#A1ADBC"/>
</svg>
