<svg width="32" height="32" viewBox="0 0 32 32" fill="none" xmlns="http://www.w3.org/2000/svg">
<path d="M16 6C13.8005 6 10.7949 7.59091 8.12891 9.40909C6.7959 10.3182 5.59302 11.2947 4.67578 12.2216C4.21558 12.6832 3.8252 13.1342 3.5332 13.5852C3.24121 14.0362 3 14.4837 3 15.0909C3 15.9538 3.41577 16.6676 3.91406 17.1364C4.41235 17.6051 5.00269 17.907 5.56445 18.1307C6.1167 18.3509 6.65308 18.4929 7.0625 18.5852V21.7386L7.21484 21.9943C7.21484 21.9943 7.92578 23.0526 9.34766 24.0398C10.7695 25.027 12.9531 26 16 26C19.0469 26 21.2305 25.027 22.6523 24.0398C24.0742 23.0526 24.7852 21.9943 24.7852 21.9943L24.9375 21.7386V18.6136C25.3501 18.5249 25.8896 18.3722 26.4355 18.1591C27.0005 17.9389 27.5845 17.6406 28.0859 17.1648C28.5874 16.6889 29 15.9609 29 15.0909C29 14.4872 28.7588 14.0149 28.4668 13.5568C28.1748 13.0987 27.7844 12.6584 27.3242 12.1932C26.4038 11.2628 25.2041 10.2862 23.8711 9.38068C21.2051 7.57315 18.1931 6 16 6ZM16 7.81818C17.3965 7.81818 20.4783 9.19957 23.0078 10.9148C24.2742 11.7706 25.4263 12.7116 26.2324 13.5284C26.6355 13.9368 26.9561 14.3097 27.1465 14.608C27.3369 14.9062 27.375 15.1264 27.375 15.0909C27.375 15.3572 27.2798 15.5241 27.0195 15.7727C26.7593 16.0213 26.3276 16.277 25.877 16.4545C25.0137 16.7919 24.1726 16.902 24.0996 16.9091C23.6394 16.8061 19.9419 16 16 16C12.093 16 8.44312 16.7955 7.92578 16.9091C7.84961 16.8984 6.99268 16.7741 6.12305 16.4261C5.66919 16.245 5.2439 15.9929 4.98047 15.7443C4.71704 15.4957 4.625 15.3253 4.625 15.0909C4.625 15.1477 4.66309 14.9311 4.85352 14.6364C5.04395 14.3416 5.3645 13.9652 5.76758 13.5568C6.57373 12.7436 7.72583 11.8061 8.99219 10.9432C11.5217 9.21733 14.6099 7.81818 16 7.81818ZM13.4609 11.4545C11.9756 11.4545 10.3125 12.3636 10.3125 12.3636C12.7881 12.3636 14.4194 13.3509 15.2383 13.9545C15.2192 14.0291 15.1875 14.1001 15.1875 14.1818C15.1875 14.6825 15.5525 15.0909 16 15.0909C16.4475 15.0909 16.8125 14.6825 16.8125 14.1818C16.8125 14.1001 16.7808 14.0291 16.7617 13.9545C17.5806 13.3509 19.2119 12.3636 21.6875 12.3636C21.6875 12.3636 20.0244 11.4545 18.5391 11.4545C17.0664 11.4545 16 12.3352 16 12.3352C16 12.3352 14.9336 11.4545 13.4609 11.4545ZM16 17.8182C19.4595 17.8182 22.4587 18.4077 23.3125 18.5852V20.3466C22.0112 20.0696 19.4944 19.6364 16 19.6364C12.5056 19.6364 9.98877 20.0696 8.6875 20.3466V18.5852C9.54126 18.4077 12.5405 17.8182 16 17.8182ZM16 21.4545C18.939 21.4545 21.0845 21.7706 22.4238 22.0227C22.2524 22.1683 22.0557 22.3388 21.8145 22.5057C20.6211 23.3366 18.7422 24.1818 16 24.1818C13.2578 24.1818 11.3789 23.3366 10.1855 22.5057C9.94434 22.3388 9.74756 22.1683 9.57617 22.0227C10.9155 21.7706 13.061 21.4545 16 21.4545Z" fill="#28282E"/>
</svg>
