<svg width="24" height="24" viewBox="0 0 24 24" fill="none" xmlns="http://www.w3.org/2000/svg">
<path d="M11.9999 3C11.3999 3 10.854 3.29888 10.539 3.79688L1.25968 18.4316C0.935682 18.9426 0.914994 19.5852 1.20499 20.1152C1.50499 20.6602 2.08662 21 2.72062 21H21.2792C21.9132 21 22.4938 20.6603 22.7948 20.1133C23.0838 19.5853 23.0632 18.9406 22.7402 18.4316L13.4628 3.79688C13.1468 3.29888 12.5999 3 11.9999 3ZM11.9999 10C12.1307 10 12.2613 10.0508 12.3593 10.1543C13.1563 10.9953 14.9999 13.334 14.9999 15C14.9999 16.953 13.8931 17.7474 13.3261 17.9824C13.1661 18.0484 13.0002 17.9269 12.9902 17.7539C12.9202 16.4999 12.4701 15.4835 12.2011 15.1055C12.1011 14.9645 11.8968 14.9645 11.7968 15.1055C11.5278 15.4835 11.0777 16.4999 11.0077 17.7539C10.9977 17.9269 10.8318 18.0484 10.6718 17.9824C10.1068 17.7474 8.99992 16.953 8.99992 15C8.99992 13.334 10.8445 10.9953 11.6405 10.1543C11.7385 10.0508 11.8692 10 11.9999 10Z" fill="#EB5757"/>
</svg>
